<svg id="Group_88" data-name="Group 88" xmlns="http://www.w3.org/2000/svg" width="29.424" height="29.425" viewBox="0 0 29.424 29.425">
  <path id="Path_437" data-name="Path 437" d="M724.747,306.528v2.3a4.6,4.6,0,0,1-4.6,4.6H708.6a4.6,4.6,0,0,1-4.6-4.6V288.6a4.6,4.6,0,0,1,4.6-4.6h11.552a4.6,4.6,0,0,1,4.6,4.6v2.3a1.149,1.149,0,1,1-2.3,0v-2.3a2.3,2.3,0,0,0-2.3-2.3H708.6a2.3,2.3,0,0,0-2.3,2.3v20.23a2.3,2.3,0,0,0,2.3,2.3h11.552a2.3,2.3,0,0,0,2.3-2.3v-2.3a1.149,1.149,0,1,1,2.3,0Zm7.836-9.79-2.574-2.574a1.149,1.149,0,0,0-1.626,1.625l1.831,1.831h-13.8a1.149,1.149,0,1,0,0,2.3h13.8l-1.831,1.831a1.149,1.149,0,1,0,1.626,1.625l2.574-2.574a2.876,2.876,0,0,0,0-4.064Zm0,0" transform="translate(-704 -284)" fill="#fff"/>
</svg>
